<svg xmlns="http://www.w3.org/2000/svg" version="1.1" xmlns:xlink="http://www.w3.org/1999/xlink" xmlns:svgjs="http://svgjs.dev/svgjs" viewBox="0 0 800 800" opacity="1"><defs><filter id="bbburst-blur-1" x="-100%" y="-100%" width="400%" height="400%"><feGaussianBlur in="SourceGraphic" stdDeviation="1"></feGaussianBlur></filter><filter id="bbburst-blur-2" x="-100%" y="-100%" width="400%" height="400%"><feGaussianBlur in="SourceGraphic" stdDeviation="2"></feGaussianBlur></filter><filter id="bbburst-blur-3" x="-100%" y="-100%" width="400%" height="400%"><feGaussianBlur in="SourceGraphic" stdDeviation="4"></feGaussianBlur></filter><filter id="bbburst-blur-4" x="-100%" y="-100%" width="400%" height="400%"><feGaussianBlur in="SourceGraphic" stdDeviation="12"></feGaussianBlur></filter><symbol id="bbburst-shape-1" viewBox="0 0 194 167"><path d="m97 0 96.129 166.5H.871L97 0Z"></path></symbol><symbol id="bbburst-shape-4" viewBox="0 0 149 143"><path d="M71.647 2.781c.898-2.764 4.808-2.764 5.706 0l15.445 47.534a3 3 0 0 0 2.853 2.073h49.98c2.906 0 4.115 3.719 1.764 5.427L106.96 87.193a2.999 2.999 0 0 0-1.09 3.354l15.445 47.534c.898 2.764-2.266 5.062-4.617 3.354l-40.435-29.378a3 3 0 0 0-3.526 0l-40.435 29.378c-2.351 1.708-5.515-.59-4.617-3.354L43.13 90.547a3 3 0 0 0-1.09-3.354L1.605 57.815c-2.35-1.708-1.142-5.427 1.764-5.427h49.98a3 3 0 0 0 2.853-2.073L71.647 2.781Z"></path></symbol><symbol id="bbburst-shape-5" viewBox="0 0 145 145"><circle cx="72.5" cy="72.5" r="72.5"></circle></symbol><symbol id="bbburst-shape-6" viewBox="0 0 133 116"><path d="M59.7487 10.2513c-13.6683-13.66839-35.8291-13.66839-49.4974 0-13.66839 13.6683-13.66839 35.8291 0 49.4974l49.4974-49.4974ZM66.5 66.5 41.7513 91.2487 66.5 115.997l24.7487-24.7483L66.5 66.5Zm56.249-6.7513c13.668-13.6683 13.668-35.8291 0-49.4974-13.669-13.66839-35.8294-13.66839-49.4977 0l49.4977 49.4974Zm-112.4977 0 31.5 31.5 49.4974-49.4974-31.5-31.5-49.4974 49.4974Zm80.9974 31.5 31.5003-31.5-49.4977-49.4974-31.5 31.5 49.4974 49.4974Z"></path></symbol><symbol id="bbburst-shape-7" viewBox="0 0 139 124"><path fill-rule="evenodd" clip-rule="evenodd" d="M70.1641 15.0917C54.6093.764854 37.8293-2.10782 24.4032 2.82615 10.3804 7.97941.763366 21.4591 1.00047 37.0608c.1068 7.0273 2.86132 13.7317 7.0039 20.2001C12.1442 63.7249 17.853 70.2322 24.25 76.9024c3.8209 3.9842 7.8871 8.0312 12.0767 12.201h.0001c10.0335 9.9862 20.7748 20.6766 30.5497 32.8956 1.38 1.725 3.8972 2.005 5.6223.624.6706-.536 1.1228-1.244 1.3439-2.011 9.5768-11.748 20.0328-22.0735 29.8163-31.7351 4.19-4.1373 8.256-8.1528 12.078-12.1062 6.396-6.6176 12.106-13.0752 16.247-19.4911 4.144-6.4196 6.905-13.0811 7.012-20.0691.237-15.5124-9.399-28.8902-23.411-33.99923-13.32-4.85681-29.9542-2.08621-45.4209 11.88043Zm-3.7351 7.4919C52.1278 8.44857 37.6826 6.46918 27.1626 10.3352 16.2859 14.3323 8.8148 24.7824 8.99955 36.9392c.07575 4.9844 2.03755 10.2234 5.74165 16.0072 3.707 5.7881 8.9752 11.8418 15.2827 18.4187 3.5798 3.7328 7.4978 7.6329 11.6 11.7163 9.0476 9.0063 18.9911 18.9046 28.1786 29.8666 9.2999-11.068 19.4036-21.0473 28.5839-30.1144l.0007-.0006c4.1019-4.0508 8.0189-7.9196 11.5979-11.6222 6.307-6.5252 11.573-12.5298 15.278-18.2697 3.703-5.7362 5.658-10.924 5.734-15.8531.184-12.0276-7.267-22.3914-18.153-26.3608-10.71-3.90518-25.4722-1.80041-40.0023 12.867-1.5547 1.5694-4.0874 1.5813-5.6568.0265-.3146-.3116-.5666-.6625-.7559-1.0371Z"></path></symbol><symbol id="bbburst-shape-8" viewBox="0 0 87 168"><path d="m12 12 31.2546 18.0749c16.4102 9.4902 20.014 31.6325 7.4603 45.8369L36.3296 92.1884c-12.5684 14.2206-8.9394 36.3916 7.5068 45.8636L75 156" stroke-width="14" stroke-linecap="round" stroke-linejoin="round"></path></symbol><symbol id="bbburst-shape-10" viewBox="0 0 145 145"><circle cx="72.5" cy="72.5" r="61.5" fill="none" stroke-width="22"></circle></symbol><symbol id="bbburst-shape-14" viewBox="0 0 185 109"><path d="M168 16.5C168 58.1975 134.197 92 92.5 92 50.8025 92 17 58.1975 17 16.5" stroke-width="33" stroke-linecap="round"></path></symbol></defs><use xlink:href="#bbburst-shape-1" width="49.52665975681305" opacity="0.4504580707548129" transform="matrix(0.8211377384844174,0.5707300714319306,-0.5707300714319306,0.8211377384844174,720.3198111805713,-162.81042793630323)" fill="#2c2891" filter="url(#bbburst-blur-2)"></use><use xlink:href="#bbburst-shape-14" width="41.51802628368546" opacity="0.6290947167828217" transform="matrix(0.947652431065729,-0.31930372671676344,0.31930372671676344,0.947652431065729,118.5216825363714,-71.75046233255273)" fill="none" stroke="#00a19d" filter="url(#bbburst-blur-1)"></use><use xlink:href="#bbburst-shape-6" width="34.94479735534595" opacity="0.2630448503101205" transform="matrix(1.1721352801976161,0.434279731182628,-0.434279731182628,1.1721352801976161,762.8567156453421,180.53253424078565)" fill="#00a19d" filter="url(#bbburst-blur-3)"></use><use xlink:href="#bbburst-shape-10" width="32.15928217967768" opacity="0.6928147150266157" transform="matrix(0.9710044332605182,0.2390614786794809,-0.2390614786794809,0.9710044332605182,342.37743976021807,-5.107401241883679)" fill="none" stroke="#2c2891" filter="url(#bbburst-blur-1)"></use><use xlink:href="#bbburst-shape-4" width="34.042687145281725" opacity="0.31486962776114513" transform="matrix(1.2487025171739208,0.05693877065334509,-0.05693877065334509,1.2487025171739208,236.33685322971132,-360.7365250883275)" fill="#2c2891" filter="url(#bbburst-blur-3)"></use><use xlink:href="#bbburst-shape-5" width="33.85514866866467" opacity="0.14133125335493746" transform="matrix(1.0618718143127386,0.6594909021117522,-0.6594909021117522,1.0618718143127386,490.5136676529821,-389.72745249735624)" fill="#ffbd9b" filter="url(#bbburst-blur-3)"></use><use xlink:href="#bbburst-shape-14" width="33.62915844995694" opacity="0.33590195619849905" transform="matrix(0.8707073228277404,-0.49180154328158526,0.49180154328158526,0.8707073228277404,477.80021827150847,135.56678809624884)" fill="none" stroke="#2c2891" filter="url(#bbburst-blur-2)"></use><use xlink:href="#bbburst-shape-7" width="27.77034068618788" opacity="0.7037002084388386" transform="matrix(0.8157323005580024,-0.5784296100878211,0.5784296100878211,0.8157323005580024,289.2342123529663,100.47434962460284)" fill="#00a19d" filter="url(#bbburst-blur-1)"></use><use xlink:href="#bbburst-shape-10" width="43.60204339588853" opacity="0.21237643819059548" transform="matrix(1.249058660627126,-0.048502188737935235,0.048502188737935235,1.249058660627126,707.4030844074913,-81.81815476577015)" fill="none" stroke="#00a19d" filter="url(#bbburst-blur-3)"></use><use xlink:href="#bbburst-shape-8" width="36.67570146741513" opacity="0.6670699707668368" transform="matrix(0.999391472945009,-0.03488099489414666,0.03488099489414666,0.999391472945009,352.6158886732299,-148.17205459762454)" fill="none" stroke="#ffa6d5" filter="url(#bbburst-blur-1)"></use><use xlink:href="#bbburst-shape-8" width="55.5909362582987" opacity="0.2714123033299187" transform="matrix(1.249111277517187,-0.047127660448834235,0.047127660448834235,1.249111277517187,568.8122039631544,-339.25149418288936)" fill="none" stroke="#ffbd9b" filter="url(#bbburst-blur-3)"></use><use xlink:href="#bbburst-shape-5" width="41.41570180118276" opacity="0.37450930466711463" transform="matrix(0.8885329573280832,-0.4588127981451811,0.4588127981451811,0.8885329573280832,-71.46739631359438,135.15921572394848)" fill="#2c2891" filter="url(#bbburst-blur-2)"></use><use xlink:href="#bbburst-shape-5" width="40.05684918498521" opacity="0.40059846350495076" transform="matrix(0.7314308067164708,0.6819156655966285,-0.6819156655966285,0.7314308067164708,430.29073852027386,-50.62493489839906)" fill="#ffbd9b" filter="url(#bbburst-blur-2)"></use><use xlink:href="#bbburst-shape-6" width="40.86371325498392" opacity="0.5268194708003227" transform="matrix(0.9268959416243122,-0.37531841601549437,0.37531841601549437,0.9268959416243122,46.09396671941127,142.61598624204458)" fill="#2c2891" filter="url(#bbburst-blur-2)"></use><use xlink:href="#bbburst-shape-1" width="24.673983011659363" opacity="0.7384131657327344" transform="matrix(0.9584978180681318,0.2850998645363244,-0.2850998645363244,0.9584978180681318,605.0579405515773,-44.140267395129456)" fill="#00a19d" filter="url(#bbburst-blur-1)"></use><use xlink:href="#bbburst-shape-4" width="45.20525912213096" opacity="0.48741250101324674" transform="matrix(0.9925731300519837,-0.1216494204622776,0.1216494204622776,0.9925731300519837,100.08035377051692,-23.271244506440325)" fill="#ffa6d5" filter="url(#bbburst-blur-2)"></use><use xlink:href="#bbburst-shape-6" width="36.64830254427089" opacity="0.5891167844593923" transform="matrix(0.9342443843459233,-0.3566334677482005,0.3566334677482005,0.9342443843459233,132.77599495110368,183.3076816862157)" fill="#ffa6d5" filter="url(#bbburst-blur-1)"></use><use xlink:href="#bbburst-shape-6" width="37.635362539897216" opacity="0.39697201390045855" transform="matrix(0.7724692789745028,-0.6350521341123198,0.6350521341123198,0.7724692789745028,384.6778464918063,5.443965377018344)" fill="#00a19d" filter="url(#bbburst-blur-2)"></use><use xlink:href="#bbburst-shape-8" width="33.799134776447445" opacity="0.4025312807604817" transform="matrix(0.8971891705218822,-0.44164645622744103,0.44164645622744103,0.8971891705218822,428.5189853681245,202.6549250005408)" fill="none" stroke="#ff5c58" filter="url(#bbburst-blur-2)"></use><use xlink:href="#bbburst-shape-6" width="40.240373436245946" opacity="-0.04149429971830165" transform="matrix(1.6302831654184309,-0.6361421229200759,0.6361421229200759,1.6302831654184309,426.5834103190988,-587.3898115767931)" fill="#ff5c58" filter="url(#bbburst-blur-4)"></use><use xlink:href="#bbburst-shape-4" width="49.08911908818651" opacity="0.14706325385669894" transform="matrix(1.2392518785457098,0.16356888922080798,-0.16356888922080798,1.2392518785457098,86.6766212483009,61.54613364278396)" fill="#ffa6d5" filter="url(#bbburst-blur-3)"></use><use xlink:href="#bbburst-shape-6" width="50.22005225854634" opacity="-0.045233370873111856" transform="matrix(1.546717204150359,0.8186366045965063,-0.8186366045965063,1.546717204150359,367.00112602108857,-582.4587028213809)" fill="#ffa6d5" filter="url(#bbburst-blur-4)"></use><use xlink:href="#bbburst-shape-8" width="40.521073499188404" opacity="0.23677530429195615" transform="matrix(0.9915047878837162,0.7611952808600873,-0.7611952808600873,0.9915047878837162,682.3686421912336,-355.46931574019226)" fill="none" stroke="#00a19d" filter="url(#bbburst-blur-3)"></use><use xlink:href="#bbburst-shape-6" width="27.932044620711963" opacity="0.7174761105951212" transform="matrix(0.8274532080946939,0.5615346724947615,-0.5615346724947615,0.8274532080946939,500.44758791447794,120.18939890458967)" fill="#2c2891" filter="url(#bbburst-blur-1)"></use><use xlink:href="#bbburst-shape-8" width="52.66918012153962" opacity="0.130745095739074" transform="matrix(1.0887166070246577,0.6141629666372903,-0.6141629666372903,1.0887166070246577,959.6560217983847,137.00003321862204)" fill="none" stroke="#00a19d" filter="url(#bbburst-blur-3)"></use><use xlink:href="#bbburst-shape-7" width="55.725958305893656" opacity="0.17124659406730158" transform="matrix(1.2498479229518473,0.01949793560747974,-0.01949793560747974,1.2498479229518473,516.5787690718494,-444.5873730650684)" fill="#ffbd9b" filter="url(#bbburst-blur-3)"></use><use xlink:href="#bbburst-shape-6" width="40.11319675852234" opacity="0.23156004334631863" transform="matrix(1.0211353047405278,-0.7209595615653277,0.7209595615653277,1.0211353047405278,-254.66130074753954,6.690946810772516)" fill="#2c2891" filter="url(#bbburst-blur-3)"></use><use xlink:href="#bbburst-shape-6" width="38.835513881667055" opacity="0.4589612710715505" transform="matrix(0.8754619117630977,-0.48328712071821456,0.48328712071821456,0.8754619117630977,181.4048891501467,-184.12658718349383)" fill="#2c2891" filter="url(#bbburst-blur-2)"></use><use xlink:href="#bbburst-shape-5" width="36.871769089131" opacity="0.13028345421251297" transform="matrix(1.19050474255362,-0.3810491542535413,0.3810491542535413,1.19050474255362,394.84442708367794,283.7248457823231)" fill="#ff5c58" filter="url(#bbburst-blur-3)"></use><use xlink:href="#bbburst-shape-4" width="55.43300243827637" opacity="0.1808833764173574" transform="matrix(0.9869177941155765,-0.767133148585071,0.767133148585071,0.9869177941155765,-280.43362949479763,-99.82107278357887)" fill="#00a19d" filter="url(#bbburst-blur-3)"></use><use xlink:href="#bbburst-shape-6" width="37.280303844963655" opacity="0.5259435998118474" transform="matrix(0.7195097401582666,-0.6944823495362453,0.6944823495362453,0.7195097401582666,2.7932010645748733,-59.983205279270805)" fill="#ffa6d5" filter="url(#bbburst-blur-2)"></use><use xlink:href="#bbburst-shape-7" width="41.20771149635419" opacity="0.12799296448924957" transform="matrix(0.997014652403933,-0.7539640461533059,0.7539640461533059,0.997014652403933,-234.89528351421143,-220.35556290544505)" fill="#ffa6d5" filter="url(#bbburst-blur-3)"></use><use xlink:href="#bbburst-shape-14" width="44.47222114653285" opacity="0.2975078369554158" transform="matrix(1.2268687916375551,0.2393594955413407,-0.2393594955413407,1.2268687916375551,241.52996892375842,124.09626981003265)" fill="none" stroke="#00a19d" filter="url(#bbburst-blur-3)"></use><use xlink:href="#bbburst-shape-8" width="57.98901164859762" opacity="0.22634299911574207" transform="matrix(1.2457659730374688,0.10279659732699452,-0.10279659732699452,1.2457659730374688,297.0336564016383,229.69499962271277)" fill="none" stroke="#ff5c58" filter="url(#bbburst-blur-3)"></use><use xlink:href="#bbburst-shape-6" width="61.225566842582964" opacity="-0.03746551504773832" transform="matrix(1.749917923094337,-0.01694881804736195,0.01694881804736195,1.749917923094337,667.6995678009727,32.73001355196391)" fill="#ff5c58" filter="url(#bbburst-blur-4)"></use><use xlink:href="#bbburst-shape-5" width="41.363108461331834" opacity="0.6138196149886779" transform="matrix(0.9957602240212531,0.09198682654132502,-0.09198682654132502,0.9957602240212531,548.3371890283761,112.66459484868551)" fill="#2c2891" filter="url(#bbburst-blur-1)"></use><use xlink:href="#bbburst-shape-14" width="41.408119688866854" opacity="0.5260691387831504" transform="matrix(0.9831528132786166,-0.18278551841527724,0.18278551841527724,0.9831528132786166,519.0298390581131,28.7996460472487)" fill="none" stroke="#00a19d" filter="url(#bbburst-blur-2)"></use><use xlink:href="#bbburst-shape-5" width="34.528477111105914" opacity="0.7840375843964776" transform="matrix(0.9907914345864574,0.13539694660556367,-0.13539694660556367,0.9907914345864574,492.0722815689791,81.45511826195514)" fill="#00a19d"></use><use xlink:href="#bbburst-shape-10" width="58.667978529623" opacity="-0.03757550802987564" transform="matrix(1.3186903828788004,-1.1504588971810177,1.1504588971810177,1.3186903828788004,-440.11596082821706,224.94439624100448)" fill="none" stroke="#2c2891" filter="url(#bbburst-blur-4)"></use><use xlink:href="#bbburst-shape-4" width="36.81750120830276" opacity="0.633363539407169" transform="matrix(0.9759647515279866,-0.21792843727911118,0.21792843727911118,0.9759647515279866,300.21362591959934,178.55836507351137)" fill="#ffbd9b" filter="url(#bbburst-blur-1)"></use><use xlink:href="#bbburst-shape-6" width="35.46169687989092" opacity="0.5008245025693352" transform="matrix(0.9270009078751028,-0.37505908441035696,0.37505908441035696,0.9270009078751028,333.0740218899663,237.22329338094835)" fill="#00a19d" filter="url(#bbburst-blur-2)"></use><use xlink:href="#bbburst-shape-8" width="27.699318206212826" opacity="0.873603584525749" transform="matrix(0.74758391690542,0.6641673638356149,-0.6641673638356149,0.74758391690542,598.49434744201,94.37032435266286)" fill="none" stroke="#ffa6d5"></use><use xlink:href="#bbburst-shape-8" width="27.859925290761897" opacity="0.7966349406669548" transform="matrix(0.9572296246137112,0.2893293033239003,-0.2893293033239003,0.9572296246137112,470.34026071249104,98.79357240576081)" fill="none" stroke="#ffa6d5"></use><use xlink:href="#bbburst-shape-6" width="36.67832656977215" opacity="0.3676136596947007" transform="matrix(0.9992148617548625,-0.03961893547548952,0.03961893547548952,0.9992148617548625,417.45079299417563,280.89338642550257)" fill="#ffbd9b" filter="url(#bbburst-blur-2)"></use><use xlink:href="#bbburst-shape-10" width="33.72206510314926" opacity="0.6582572210285775" transform="matrix(0.7726982408644691,0.6347735254127687,-0.6347735254127687,0.7726982408644691,712.3498748564463,-55.95045773646149)" fill="none" stroke="#00a19d" filter="url(#bbburst-blur-1)"></use><use xlink:href="#bbburst-shape-5" width="32.174037986540625" opacity="0.863624401101348" transform="matrix(0.9682841970092378,-0.24985138347060534,0.24985138347060534,0.9682841970092378,345.80788294486644,14.387611532647725)" fill="#ffbd9b"></use><use xlink:href="#bbburst-shape-5" width="34.17835603515835" opacity="0.20391162049185796" transform="matrix(1.2470080019729628,0.0864351954668878,-0.0864351954668878,1.2470080019729628,423.90903006779274,257.801260612477)" fill="#2c2891" filter="url(#bbburst-blur-3)"></use><use xlink:href="#bbburst-shape-7" width="26.537488948680892" opacity="0.8495337495130426" transform="matrix(0.952215323401364,0.3054275329429809,-0.3054275329429809,0.952215323401364,526.7474984363579,-50.438825473105624)" fill="#ff5c58"></use><use xlink:href="#bbburst-shape-6" width="46.04436714383367" opacity="0.09107460447377425" transform="matrix(1.5982242101534085,0.7128670100934067,-0.7128670100934067,1.5982242101534085,427.5278067548423,88.58298785410761)" fill="#2c2891" filter="url(#bbburst-blur-4)"></use><use xlink:href="#bbburst-shape-6" width="33.660987224490476" opacity="0.45487298243858787" transform="matrix(0.7753731303385296,0.6315033719221376,-0.6315033719221376,0.7753731303385296,562.5771667894924,312.1401112791796)" fill="#ff5c58" filter="url(#bbburst-blur-2)"></use><use xlink:href="#bbburst-shape-1" width="33.423941869149715" opacity="0.7945607475514732" transform="matrix(0.7856992515693835,0.6186086695830496,-0.6186086695830496,0.7856992515693835,578.2143322711336,1.9142118653875286)" fill="#00a19d"></use><use xlink:href="#bbburst-shape-5" width="35.94249268662706" opacity="0.5591318868562217" transform="matrix(0.9596702880175098,-0.2811279749444901,0.2811279749444901,0.9596702880175098,438.1059093414765,-84.6497767769506)" fill="#2c2891" filter="url(#bbburst-blur-1)"></use><use xlink:href="#bbburst-shape-5" width="23.873130482158533" opacity="0.96447626623375" transform="matrix(0.9078624611915982,-0.4192681141693629,0.4192681141693629,0.9078624611915982,225.42784548594653,57.344025199206555)" fill="#ffa6d5"></use><use xlink:href="#bbburst-shape-4" width="46.221880932053956" opacity="0.18887697437791817" transform="matrix(1.1509342170431756,-0.48769911629939683,0.48769911629939683,1.1509342170431756,525.8107560540677,-160.8310294377651)" fill="#00a19d" filter="url(#bbburst-blur-3)"></use><use xlink:href="#bbburst-shape-7" width="44.333532762759205" opacity="0.08134611926861024" transform="matrix(1.7375357171068275,0.20849372119577778,-0.20849372119577778,1.7375357171068275,786.2861275256922,-532.3991577399302)" fill="#00a19d" filter="url(#bbburst-blur-4)"></use></svg>