<svg xmlns="http://www.w3.org/2000/svg" version="1.1" xmlns:xlink="http://www.w3.org/1999/xlink" xmlns:svgjs="http://svgjs.dev/svgjs" viewBox="0 0 800 800"><defs><filter id="bbburst-blur-1" x="-100%" y="-100%" width="400%" height="400%"><feGaussianBlur in="SourceGraphic" stdDeviation="1"></feGaussianBlur></filter><filter id="bbburst-blur-2" x="-100%" y="-100%" width="400%" height="400%"><feGaussianBlur in="SourceGraphic" stdDeviation="2"></feGaussianBlur></filter><filter id="bbburst-blur-3" x="-100%" y="-100%" width="400%" height="400%"><feGaussianBlur in="SourceGraphic" stdDeviation="4"></feGaussianBlur></filter><filter id="bbburst-blur-4" x="-100%" y="-100%" width="400%" height="400%"><feGaussianBlur in="SourceGraphic" stdDeviation="12"></feGaussianBlur></filter><symbol id="bbburst-shape-1" viewBox="0 0 194 167"><path d="m97 0 96.129 166.5H.871L97 0Z"></path></symbol><symbol id="bbburst-shape-4" viewBox="0 0 149 143"><path d="M71.647 2.781c.898-2.764 4.808-2.764 5.706 0l15.445 47.534a3 3 0 0 0 2.853 2.073h49.98c2.906 0 4.115 3.719 1.764 5.427L106.96 87.193a2.999 2.999 0 0 0-1.09 3.354l15.445 47.534c.898 2.764-2.266 5.062-4.617 3.354l-40.435-29.378a3 3 0 0 0-3.526 0l-40.435 29.378c-2.351 1.708-5.515-.59-4.617-3.354L43.13 90.547a3 3 0 0 0-1.09-3.354L1.605 57.815c-2.35-1.708-1.142-5.427 1.764-5.427h49.98a3 3 0 0 0 2.853-2.073L71.647 2.781Z"></path></symbol><symbol id="bbburst-shape-5" viewBox="0 0 145 145"><circle cx="72.5" cy="72.5" r="72.5"></circle></symbol><symbol id="bbburst-shape-6" viewBox="0 0 133 116"><path d="M59.7487 10.2513c-13.6683-13.66839-35.8291-13.66839-49.4974 0-13.66839 13.6683-13.66839 35.8291 0 49.4974l49.4974-49.4974ZM66.5 66.5 41.7513 91.2487 66.5 115.997l24.7487-24.7483L66.5 66.5Zm56.249-6.7513c13.668-13.6683 13.668-35.8291 0-49.4974-13.669-13.66839-35.8294-13.66839-49.4977 0l49.4977 49.4974Zm-112.4977 0 31.5 31.5 49.4974-49.4974-31.5-31.5-49.4974 49.4974Zm80.9974 31.5 31.5003-31.5-49.4977-49.4974-31.5 31.5 49.4974 49.4974Z"></path></symbol><symbol id="bbburst-shape-7" viewBox="0 0 139 124"><path fill-rule="evenodd" clip-rule="evenodd" d="M70.1641 15.0917C54.6093.764854 37.8293-2.10782 24.4032 2.82615 10.3804 7.97941.763366 21.4591 1.00047 37.0608c.1068 7.0273 2.86132 13.7317 7.0039 20.2001C12.1442 63.7249 17.853 70.2322 24.25 76.9024c3.8209 3.9842 7.8871 8.0312 12.0767 12.201h.0001c10.0335 9.9862 20.7748 20.6766 30.5497 32.8956 1.38 1.725 3.8972 2.005 5.6223.624.6706-.536 1.1228-1.244 1.3439-2.011 9.5768-11.748 20.0328-22.0735 29.8163-31.7351 4.19-4.1373 8.256-8.1528 12.078-12.1062 6.396-6.6176 12.106-13.0752 16.247-19.4911 4.144-6.4196 6.905-13.0811 7.012-20.0691.237-15.5124-9.399-28.8902-23.411-33.99923-13.32-4.85681-29.9542-2.08621-45.4209 11.88043Zm-3.7351 7.4919C52.1278 8.44857 37.6826 6.46918 27.1626 10.3352 16.2859 14.3323 8.8148 24.7824 8.99955 36.9392c.07575 4.9844 2.03755 10.2234 5.74165 16.0072 3.707 5.7881 8.9752 11.8418 15.2827 18.4187 3.5798 3.7328 7.4978 7.6329 11.6 11.7163 9.0476 9.0063 18.9911 18.9046 28.1786 29.8666 9.2999-11.068 19.4036-21.0473 28.5839-30.1144l.0007-.0006c4.1019-4.0508 8.0189-7.9196 11.5979-11.6222 6.307-6.5252 11.573-12.5298 15.278-18.2697 3.703-5.7362 5.658-10.924 5.734-15.8531.184-12.0276-7.267-22.3914-18.153-26.3608-10.71-3.90518-25.4722-1.80041-40.0023 12.867-1.5547 1.5694-4.0874 1.5813-5.6568.0265-.3146-.3116-.5666-.6625-.7559-1.0371Z"></path></symbol><symbol id="bbburst-shape-8" viewBox="0 0 87 168"><path d="m12 12 31.2546 18.0749c16.4102 9.4902 20.014 31.6325 7.4603 45.8369L36.3296 92.1884c-12.5684 14.2206-8.9394 36.3916 7.5068 45.8636L75 156" stroke-width="14" stroke-linecap="round" stroke-linejoin="round"></path></symbol><symbol id="bbburst-shape-10" viewBox="0 0 145 145"><circle cx="72.5" cy="72.5" r="61.5" fill="none" stroke-width="22"></circle></symbol><symbol id="bbburst-shape-14" viewBox="0 0 185 109"><path d="M168 16.5C168 58.1975 134.197 92 92.5 92 50.8025 92 17 58.1975 17 16.5" stroke-width="33" stroke-linecap="round"></path></symbol></defs><use xlink:href="#bbburst-shape-6" width="22.614285543505638" opacity="0.6903178347804317" transform="matrix(0.7517011520520033,0.6595038877851223,-0.6595038877851223,0.7517011520520033,537.0057967063312,18.198351249931704)" fill="#ffa6d5" filter="url(#bbburst-blur-1)"></use><use xlink:href="#bbburst-shape-6" width="27.37410877796997" opacity="0.7152450580845995" transform="matrix(0.8471692631915423,-0.5313231027383425,0.5313231027383425,0.8471692631915423,117.43233449178618,182.4406054522845)" fill="#00a19d" filter="url(#bbburst-blur-1)"></use><use xlink:href="#bbburst-shape-10" width="43.115919568195395" opacity="0.49037463940055837" transform="matrix(0.995985327469439,-0.0895166323405561,0.0895166323405561,0.995985327469439,276.24576078083214,223.02100109238143)" fill="none" stroke="#ffa6d5" filter="url(#bbburst-blur-2)"></use><use xlink:href="#bbburst-shape-4" width="33.851115438618194" opacity="0.4658617505423779" transform="matrix(0.9349115801284213,0.35488073678600596,-0.35488073678600596,0.9349115801284213,676.5483200542075,-167.41125772833453)" fill="#2c2891" filter="url(#bbburst-blur-2)"></use><use xlink:href="#bbburst-shape-6" width="27.818094070925092" opacity="0.44380875037692" transform="matrix(0.9071021483515285,-0.4209105516092957,0.4209105516092957,0.9071021483515285,448.1282670640426,-57.743481865774584)" fill="#2c2891" filter="url(#bbburst-blur-2)"></use><use xlink:href="#bbburst-shape-6" width="20.357274151284194" opacity="0.8057349309394621" transform="matrix(0.7388843013692078,0.6738323153353049,-0.6738323153353049,0.7388843013692078,587.5155170089156,51.844815864087764)" fill="#ff5c58"></use><use xlink:href="#bbburst-shape-5" width="34.30230280167226" opacity="0.09692878338647093" transform="matrix(1.72695685626788,0.2830547943232199,-0.2830547943232199,1.72695685626788,298.23672271698484,-657.2807237030953)" fill="#00a19d" filter="url(#bbburst-blur-4)"></use><use xlink:href="#bbburst-shape-7" width="25.545576944567653" opacity="0.8012196140650196" transform="matrix(0.8460881880127242,0.5330429420837922,-0.5330429420837922,0.8460881880127242,571.5379033978389,-29.28127024101002)" fill="#2c2891"></use><use xlink:href="#bbburst-shape-1" width="30.000959180510833" opacity="0.584851400566837" transform="matrix(0.9123771932371654,0.40935053103748653,-0.40935053103748653,0.9123771932371654,706.5526251772554,-73.05507990030213)" fill="#ff5c58" filter="url(#bbburst-blur-1)"></use><use xlink:href="#bbburst-shape-8" width="27.10274519559565" opacity="0.5963334805746923" transform="matrix(0.8908051733234086,0.45438545661173185,-0.45438545661173185,0.8908051733234086,458.8366295671328,181.42965688902643)" fill="none" stroke="#ffa6d5" filter="url(#bbburst-blur-1)"></use><use xlink:href="#bbburst-shape-6" width="27.844932473951143" opacity="0.7087822995239449" transform="matrix(0.7746399905994241,0.6324024707131718,-0.6324024707131718,0.7746399905994241,735.7760579623721,173.0597719651106)" fill="#2c2891" filter="url(#bbburst-blur-1)"></use><use xlink:href="#bbburst-shape-8" width="33.06477102306233" opacity="0.18765021796949488" transform="matrix(1.0800838337735597,-0.6292208769748581,0.6292208769748581,1.0800838337735597,492.62145882142227,-71.30862045841701)" fill="none" stroke="#ffbd9b" filter="url(#bbburst-blur-3)"></use><use xlink:href="#bbburst-shape-14" width="20.991094916476076" opacity="0.6840017260030217" transform="matrix(0.9310702176433786,0.3648400331892206,-0.3648400331892206,0.9310702176433786,458.1518093936271,-95.12723390345849)" fill="none" stroke="#2c2891" filter="url(#bbburst-blur-1)"></use><use xlink:href="#bbburst-shape-4" width="37.08549518632179" opacity="0.5667864855435165" transform="matrix(0.859816705699061,0.510602812958188,-0.510602812958188,0.859816705699061,672.6511422815677,222.37717004608282)" fill="#2c2891" filter="url(#bbburst-blur-1)"></use><use xlink:href="#bbburst-shape-5" width="37.41425974110147" opacity="0.43782567911626824" transform="matrix(0.9595338324883788,-0.2815933669498695,0.2815933669498695,0.9595338324883788,438.4591572682571,209.65981412718241)" fill="#2c2891" filter="url(#bbburst-blur-2)"></use><use xlink:href="#bbburst-shape-10" width="42.11372975007608" opacity="0.37371300203036173" transform="matrix(0.9095330000639383,0.41563171413487193,-0.41563171413487193,0.9095330000639383,271.09523740602134,84.43145878128018)" fill="none" stroke="#ffa6d5" filter="url(#bbburst-blur-2)"></use><use xlink:href="#bbburst-shape-6" width="34.598936306103624" opacity="0.5299789029249938" transform="matrix(0.9025823404811311,-0.43051726870313073,0.43051726870313073,0.9025823404811311,100.65544193953741,-133.303394177954)" fill="#00a19d" filter="url(#bbburst-blur-2)"></use><use xlink:href="#bbburst-shape-5" width="29.428917096197377" opacity="0.6567159141994734" transform="matrix(0.999954191704293,-0.009571546009604099,0.009571546009604099,0.999954191704293,471.74373542408273,-125.18762524443122)" fill="#ff5c58" filter="url(#bbburst-blur-1)"></use><use xlink:href="#bbburst-shape-8" width="46.05264391967893" opacity="-0.06458256329589118" transform="matrix(1.7284517679061224,0.27377816936746363,-0.27377816936746363,1.7284517679061224,138.0424620754265,47.99749355034396)" fill="none" stroke="#ffa6d5" filter="url(#bbburst-blur-4)"></use><use xlink:href="#bbburst-shape-5" width="43.72584849133219" opacity="-0.0584424042647822" transform="matrix(1.7424394610987295,0.16249530579671945,-0.16249530579671945,1.7424394610987295,762.3337845180959,37.62427601969273)" fill="#ff5c58" filter="url(#bbburst-blur-4)"></use><use xlink:href="#bbburst-shape-8" width="33.52506330959497" opacity="-0.07579540467526891" transform="matrix(1.454778590214002,0.9726866162618669,-0.9726866162618669,1.454778590214002,429.98101182159076,-547.9748551489911)" fill="none" stroke="#ff5c58" filter="url(#bbburst-blur-4)"></use><use xlink:href="#bbburst-shape-4" width="36.956666131246024" opacity="0.3564812849623056" transform="matrix(0.9983445293439294,-0.05751696035995081,0.05751696035995081,0.9983445293439294,93.12695698560928,-114.04556203924517)" fill="#00a19d" filter="url(#bbburst-blur-2)"></use><use xlink:href="#bbburst-shape-5" width="32.42998289771052" opacity="0.37695096449184884" transform="matrix(0.9963601006564194,-0.0852440603205274,0.0852440603205274,0.9963601006564194,630.1130786789564,1.100662243087072)" fill="#ffa6d5" filter="url(#bbburst-blur-2)"></use><use xlink:href="#bbburst-shape-6" width="38.29374074685981" opacity="0.25088067139502157" transform="matrix(1.055023543149695,0.6703919177614417,-0.6703919177614417,1.055023543149695,903.3950833513115,-254.82174583120047)" fill="#00a19d" filter="url(#bbburst-blur-3)"></use><use xlink:href="#bbburst-shape-4" width="30.635460418854873" opacity="0.11760844213151833" transform="matrix(1.0284820739289373,0.7104397396027561,-0.7104397396027561,1.0284820739289373,490.818608352178,332.9063740182857)" fill="#ffa6d5" filter="url(#bbburst-blur-3)"></use><use xlink:href="#bbburst-shape-4" width="23.803480554567773" opacity="0.5670639441073462" transform="matrix(0.996010131341056,0.08924022784581123,-0.08924022784581123,0.996010131341056,473.6520815852578,-187.79021780018778)" fill="#00a19d" filter="url(#bbburst-blur-1)"></use><use xlink:href="#bbburst-shape-10" width="37.8183530810835" opacity="0.39101290039872516" transform="matrix(0.9808412957157575,-0.19480850242901077,0.19480850242901077,0.9808412957157575,142.82432552621395,233.3246588431748)" fill="none" stroke="#00a19d" filter="url(#bbburst-blur-2)"></use><use xlink:href="#bbburst-shape-14" width="37.531813592938384" opacity="0.15419274746439382" transform="matrix(1.2470284713500523,-0.08613937335708732,0.08613937335708732,1.2470284713500523,100.73258116540995,-391.38585045492)" fill="none" stroke="#ffa6d5" filter="url(#bbburst-blur-3)"></use><use xlink:href="#bbburst-shape-4" width="45.28514513088719" opacity="0.21882893977579454" transform="matrix(1.1106388849705806,-0.5735688861778553,0.5735688861778553,1.1106388849705806,393.2308132842504,218.12639083103596)" fill="#ff5c58" filter="url(#bbburst-blur-3)"></use><use xlink:href="#bbburst-shape-10" width="32.49928320030422" opacity="0.6854973756291175" transform="matrix(0.709370102088628,-0.7048361925034564,0.7048361925034564,0.709370102088628,-19.009935437807655,193.0294789548425)" fill="none" stroke="#ffbd9b" filter="url(#bbburst-blur-1)"></use><use xlink:href="#bbburst-shape-7" width="22.104578237183723" opacity="0.7077401013735177" transform="matrix(0.9788114916353883,-0.20476343385113024,0.20476343385113024,0.9788114916353883,175.68470387038235,9.697060055197312)" fill="#2c2891" filter="url(#bbburst-blur-1)"></use><use xlink:href="#bbburst-shape-8" width="32.1501779133132" opacity="0.5990424272301202" transform="matrix(0.9172498633398507,-0.39831229983898964,0.39831229983898964,0.9172498633398507,50.50722522826268,-2.7118813619201205)" fill="none" stroke="#ff5c58" filter="url(#bbburst-blur-1)"></use><use xlink:href="#bbburst-shape-7" width="47.2245905422204" opacity="-0.06312406502544543" transform="matrix(1.5597319112112786,-0.7935593015957991,0.7935593015957991,1.5597319112112786,383.1061182614307,-543.9766609801928)" fill="#ffa6d5" filter="url(#bbburst-blur-4)"></use><use xlink:href="#bbburst-shape-10" width="38.91413052212685" opacity="0.3822221557215377" transform="matrix(0.9227784228242615,0.38533100364487743,-0.38533100364487743,0.9227784228242615,338.0269174924624,-171.59652538008572)" fill="none" stroke="#ff5c58" filter="url(#bbburst-blur-2)"></use><use xlink:href="#bbburst-shape-7" width="42.70347502756041" opacity="0.4286767610400286" transform="matrix(0.8197318022804114,-0.5727475642288743,0.5727475642288743,0.8197318022804114,125.07446447918736,-171.13270296724954)" fill="#00a19d" filter="url(#bbburst-blur-2)"></use><use xlink:href="#bbburst-shape-8" width="42.34375193217924" opacity="0.36774957457050417" transform="matrix(0.8761983956314121,0.48195059030251164,-0.48195059030251164,0.8761983956314121,832.0849801217728,159.55824628321113)" fill="none" stroke="#ffa6d5" filter="url(#bbburst-blur-2)"></use><use xlink:href="#bbburst-shape-1" width="17.01635569370447" opacity="0.9250700041137412" transform="matrix(0.8102892694971703,-0.586030118456161,0.586030118456161,0.8102892694971703,138.40348016338217,107.8086772440584)" fill="#ffa6d5"></use><use xlink:href="#bbburst-shape-7" width="39.13672149931465" opacity="0.1863256359650981" transform="matrix(1.1902661139715751,-0.38179389457010104,0.38179389457010104,1.1902661139715751,-19.322678140164356,205.17368232375475)" fill="#ffa6d5" filter="url(#bbburst-blur-3)"></use><use xlink:href="#bbburst-shape-4" width="36.295389817368644" opacity="0.2165470260913731" transform="matrix(1.1389701778559795,-0.5150212946614133,0.5150212946614133,1.1389701778559795,86.76182589697171,-387.96225032286674)" fill="#00a19d" filter="url(#bbburst-blur-3)"></use><use xlink:href="#bbburst-shape-4" width="39.703797650558165" opacity="0.26237272584206395" transform="matrix(1.0820560129415697,-0.6258232856461907,0.6258232856461907,1.0820560129415697,51.32430282066622,302.5448379505874)" fill="#ffa6d5" filter="url(#bbburst-blur-3)"></use><use xlink:href="#bbburst-shape-10" width="32.81280429957564" opacity="0.39080365178151977" transform="matrix(0.9794244884695269,0.20181097934999873,-0.20181097934999873,0.9794244884695269,534.9563400541131,-260.051802716461)" fill="none" stroke="#00a19d" filter="url(#bbburst-blur-2)"></use><use xlink:href="#bbburst-shape-10" width="14.63137300705317" opacity="0.8865822317945177" transform="matrix(0.9996606956343458,-0.026047909779017484,0.026047909779017484,0.9996606956343458,393.60599803968194,-49.43633751431139)" fill="none" stroke="#ffa6d5"></use><use xlink:href="#bbburst-shape-4" width="39.49587515372171" opacity="0.23467560978188606" transform="matrix(1.1828551113128905,-0.4041704908092247,0.4041704908092247,1.1828551113128905,534.8007544287861,-192.89881513227658)" fill="#ffa6d5" filter="url(#bbburst-blur-3)"></use><use xlink:href="#bbburst-shape-7" width="36.70679886898387" opacity="0.5016442016259707" transform="matrix(0.8564729907471328,-0.5161918404243346,0.5161918404243346,0.8564729907471328,-10.821374974255889,188.42428551436632)" fill="#ffa6d5" filter="url(#bbburst-blur-2)"></use><use xlink:href="#bbburst-shape-4" width="32.88219529214484" opacity="0.3050600992855489" transform="matrix(1.1214961843254647,-0.5520383216257939,0.5520383216257939,1.1214961843254647,-107.55073455499368,121.1463689118657)" fill="#ff5c58" filter="url(#bbburst-blur-3)"></use><use xlink:href="#bbburst-shape-10" width="42.80839969112307" opacity="0.16207493313029908" transform="matrix(0.8890225794106066,-0.8787143183641153,0.8787143183641153,0.8890225794106066,-328.6188237318374,-54.86992167010561)" fill="none" stroke="#ff5c58" filter="url(#bbburst-blur-3)"></use><use xlink:href="#bbburst-shape-8" width="37.58516150808003" opacity="0.2763428982477607" transform="matrix(0.8921999801705363,-0.8754879755791594,0.8754879755791594,0.8921999801705363,209.33399565128798,-214.22441042500822)" fill="none" stroke="#ff5c58" filter="url(#bbburst-blur-3)"></use><use xlink:href="#bbburst-shape-4" width="32.01848481441334" opacity="0.4490793927300498" transform="matrix(0.907353923351312,-0.4203675270272209,0.4203675270272209,0.907353923351312,-28.07472361550623,8.692837462821387)" fill="#ffbd9b" filter="url(#bbburst-blur-2)"></use><use xlink:href="#bbburst-shape-8" width="34.610239967020675" opacity="0.43286348262027996" transform="matrix(0.7621865743379919,0.6473574174278972,-0.6473574174278972,0.7621865743379919,670.8913670951769,337.89315963652757)" fill="none" stroke="#ffa6d5" filter="url(#bbburst-blur-2)"></use><use xlink:href="#bbburst-shape-10" width="29.164047946757957" opacity="0.6255498388850764" transform="matrix(0.9247099660250596,-0.3806724034309987,0.3806724034309987,0.9247099660250596,228.2272599966015,204.06199224275957)" fill="none" stroke="#00a19d" filter="url(#bbburst-blur-1)"></use><use xlink:href="#bbburst-shape-8" width="41.0150192166508" opacity="0.34826160485867697" transform="matrix(0.9762519258605377,0.21663835591508546,-0.21663835591508546,0.9762519258605377,332.00823298278215,-255.5008965243632)" fill="none" stroke="#2c2891" filter="url(#bbburst-blur-2)"></use><use xlink:href="#bbburst-shape-1" width="37.77681405031994" opacity="0.22096168134907035" transform="matrix(0.9572722818441316,-0.8038219817925667,0.8038219817925667,0.9572722818441316,-224.13451595667618,-172.42556366226353)" fill="#ffa6d5" filter="url(#bbburst-blur-3)"></use><use xlink:href="#bbburst-shape-8" width="17.90748125508832" opacity="0.9124295046618361" transform="matrix(0.7351988976411724,-0.6778514445711573,0.6778514445711573,0.7351988976411724,90.5255911630295,88.64963741677474)" fill="none" stroke="#2c2891"></use><use xlink:href="#bbburst-shape-1" width="24.61419070120812" opacity="0.5928480430367769" transform="matrix(0.9997608555838744,-0.021868508001220477,0.021868508001220477,0.9997608555838744,342.72781823108147,-179.20580329956616)" fill="#ff5c58" filter="url(#bbburst-blur-1)"></use><use xlink:href="#bbburst-shape-7" width="13.917439268439258" opacity="0.8620575192419335" transform="matrix(0.9648310482267123,-0.26287078266278197,0.26287078266278197,0.9648310482267123,311.4721279542689,73.40677301346608)" fill="#ffbd9b"></use><use xlink:href="#bbburst-shape-10" width="39.93550655908259" opacity="0.21381846191408949" transform="matrix(0.8990740882164049,0.8684271897504363,-0.8684271897504363,0.8990740882164049,730.7528706204963,-330.74934722111686)" fill="none" stroke="#ff5c58" filter="url(#bbburst-blur-3)"></use><use xlink:href="#bbburst-shape-6" width="19.11467912157752" opacity="0.8050236890810825" transform="matrix(0.9931119075515162,0.11716970205385283,-0.11716970205385283,0.9931119075515162,422.43077813054964,88.09267031930852)" fill="#ffbd9b"></use><use xlink:href="#bbburst-shape-8" width="39.214948589895094" opacity="0.551083496669013" transform="matrix(0.7341276268659553,0.6790115076139436,-0.6790115076139436,0.7341276268659553,458.9096090981583,131.58242628875115)" fill="none" stroke="#2c2891" filter="url(#bbburst-blur-2)"></use><use xlink:href="#bbburst-shape-6" width="16.539811900770793" opacity="0.8284005439025746" transform="matrix(0.9815403868652387,0.19125498412443406,-0.19125498412443406,0.9815403868652387,391.5583977705902,13.587437054915767)" fill="#00a19d"></use><use xlink:href="#bbburst-shape-10" width="36.081703123991204" opacity="0.18182099481908132" transform="matrix(0.9614607289306875,0.7988074027724524,-0.7988074027724524,0.9614607289306875,805.61562122971,-352.34719571655177)" fill="none" stroke="#2c2891" filter="url(#bbburst-blur-3)"></use><use xlink:href="#bbburst-shape-6" width="22.659994836709277" opacity="0.7296497664990127" transform="matrix(0.9095669678406523,-0.4155573739126304,0.4155573739126304,0.9095669678406523,258.70282773404864,157.3263146872091)" fill="#00a19d" filter="url(#bbburst-blur-1)"></use><use xlink:href="#bbburst-shape-1" width="35.962716923461045" opacity="0.23445990028433294" transform="matrix(1.2464006237429828,0.094791798870489,-0.094791798870489,1.2464006237429828,71.59824571190563,-120.37609709457894)" fill="#ff5c58" filter="url(#bbburst-blur-3)"></use><use xlink:href="#bbburst-shape-7" width="32.06086320682395" opacity="0.17607547426354497" transform="matrix(1.1834056514668694,0.40255566581067304,-0.40255566581067304,1.1834056514668694,182.5748648535553,11.441341460515332)" fill="#2c2891" filter="url(#bbburst-blur-3)"></use><use xlink:href="#bbburst-shape-1" width="34.98820091916303" opacity="0.20196886624479893" transform="matrix(1.0363077294157852,0.6989751711993065,-0.6989751711993065,1.0363077294157852,692.3259492186852,331.07812382789973)" fill="#00a19d" filter="url(#bbburst-blur-3)"></use><use xlink:href="#bbburst-shape-10" width="21.641681950529204" opacity="0.7256476007999894" transform="matrix(0.7338882574252571,-0.6792702154616523,0.6792702154616523,0.7338882574252571,241.08807946765273,139.57261490421848)" fill="none" stroke="#00a19d" filter="url(#bbburst-blur-1)"></use><use xlink:href="#bbburst-shape-6" width="44.42857071088923" opacity="0.19730382066504948" transform="matrix(1.1530623355529948,0.4826460922136147,-0.4826460922136147,1.1530623355529948,920.698278413312,3.461237461705309)" fill="#00a19d" filter="url(#bbburst-blur-3)"></use><use xlink:href="#bbburst-shape-6" width="38.50502793250847" opacity="0.10049859576356035" transform="matrix(1.7392919274452048,-0.19329664022932364,0.19329664022932364,1.7392919274452048,483.2871829878981,63.212160179362854)" fill="#00a19d" filter="url(#bbburst-blur-4)"></use><use xlink:href="#bbburst-shape-10" width="32.64384682132889" opacity="0.5728034314478405" transform="matrix(0.7240740182697378,0.6897222745908062,-0.6897222745908062,0.7240740182697378,832.0371473597644,192.61617415985006)" fill="none" stroke="#ffa6d5" filter="url(#bbburst-blur-1)"></use><use xlink:href="#bbburst-shape-7" width="46.22746200993636" opacity="0.07704044083663553" transform="matrix(1.713616192959606,0.3549923143205019,-0.3549923143205019,1.713616192959606,150.51925803076116,-72.638809352355)" fill="#ffa6d5" filter="url(#bbburst-blur-4)"></use><use xlink:href="#bbburst-shape-4" width="24.258713621747823" opacity="0.7826157107692959" transform="matrix(0.9275047877129964,0.37381127426746974,-0.37381127426746974,0.9275047877129964,617.4714403585692,-32.92515769068132)" fill="#ffa6d5"></use><use xlink:href="#bbburst-shape-10" width="31.560040848930836" opacity="0.07301300314058112" transform="matrix(1.3753646435252098,-1.0820684346845963,1.0820684346845963,1.3753646435252098,168.0195900076497,-485.88896030263385)" fill="none" stroke="#00a19d" filter="url(#bbburst-blur-4)"></use><use xlink:href="#bbburst-shape-6" width="23.205626728697368" opacity="0.8128427911812546" transform="matrix(0.9942299117520185,-0.10727013833110138,0.10727013833110138,0.9942299117520185,281.7266999484176,58.49779717315755)" fill="#ffa6d5"></use><use xlink:href="#bbburst-shape-5" width="16.068976046929514" opacity="0.9681052478557732" transform="matrix(0.9392328886383899,0.343280615386284,-0.343280615386284,0.9392328886383899,543.8933121875723,19.015635970356584)" fill="#ffbd9b"></use><use xlink:href="#bbburst-shape-7" width="19.52650514074045" opacity="0.781885851103745" transform="matrix(0.7416143775052457,-0.6708264418443171,0.6708264418443171,0.7416143775052457,161.5533330729658,19.109279594898908)" fill="#00a19d"></use><use xlink:href="#bbburst-shape-5" width="33.742207000928325" opacity="0.3081493057916288" transform="matrix(1.2300435469748163,0.2224699362736747,-0.2224699362736747,1.2300435469748163,588.6249971108045,191.34345909314084)" fill="#ffa6d5" filter="url(#bbburst-blur-3)"></use><use xlink:href="#bbburst-shape-6" width="34.411213288705284" opacity="0.04139294969266882" transform="matrix(1.7493247554444513,-0.048609669708920236,0.048609669708920236,1.7493247554444513,-8.88507362677484,-537.5461667638588)" fill="#ffa6d5" filter="url(#bbburst-blur-4)"></use><use xlink:href="#bbburst-shape-7" width="36.48619465140533" opacity="0.5346885594031305" transform="matrix(0.7993285836950983,-0.6008941797754311,0.6008941797754311,0.7993285836950983,-29.18862329813939,-24.978201556604063)" fill="#ff5c58" filter="url(#bbburst-blur-2)"></use><use xlink:href="#bbburst-shape-6" width="29.25749383003256" opacity="0.6814284784634569" transform="matrix(0.9837475367034682,-0.17955718874458498,0.17955718874458498,0.9837475367034682,452.0856688722174,-28.61501081189175)" fill="#ff5c58" filter="url(#bbburst-blur-1)"></use><use xlink:href="#bbburst-shape-6" width="17.49016478739697" opacity="0.8583552638098835" transform="matrix(0.8387751189630224,-0.5444780067262291,0.5444780067262291,0.8387751189630224,237.42957294677507,57.021702132319206)" fill="#ffa6d5"></use><use xlink:href="#bbburst-shape-7" width="20.64571705962334" opacity="0.7059427315161138" transform="matrix(0.9966825903735873,-0.08138681739812573,0.08138681739812573,0.9966825903735873,362.58236666895476,-130.04507217351295)" fill="#00a19d" filter="url(#bbburst-blur-1)"></use><use xlink:href="#bbburst-shape-8" width="35.805438623602235" opacity="0.06810418767118065" transform="matrix(1.402557760155374,1.0465809712716643,-1.0465809712716643,1.402557760155374,1149.3811688002943,-401.6197520952122)" fill="none" stroke="#00a19d" filter="url(#bbburst-blur-4)"></use><use xlink:href="#bbburst-shape-1" width="21.707033826343938" opacity="0.8456873733054211" transform="matrix(0.9189106446417715,0.39446574903791576,-0.39446574903791576,0.9189106446417715,607.6425927961095,63.409304519660395)" fill="#00a19d"></use><use xlink:href="#bbburst-shape-8" width="31.863862172977157" opacity="0.5535167066691515" transform="matrix(0.7134902486797616,-0.7006651590017102,0.7006651590017102,0.7134902486797616,309.11097497287466,134.10647296673363)" fill="none" stroke="#ffa6d5" filter="url(#bbburst-blur-2)"></use><use xlink:href="#bbburst-shape-14" width="46.265582361573706" opacity="0.1022704736471165" transform="matrix(1.648249049215547,-0.5880264209710693,0.5880264209710693,1.648249049215547,476.00685303395073,-42.66165791757271)" fill="none" stroke="#ff5c58" filter="url(#bbburst-blur-4)"></use></svg>