<svg xmlns="http://www.w3.org/2000/svg" version="1.1" xmlns:xlink="http://www.w3.org/1999/xlink" xmlns:svgjs="http://svgjs.dev/svgjs" viewBox="0 0 800 800" opacity="1"><defs><filter id="bbburst-blur-1" x="-100%" y="-100%" width="400%" height="400%"><feGaussianBlur in="SourceGraphic" stdDeviation="1"></feGaussianBlur></filter><filter id="bbburst-blur-2" x="-100%" y="-100%" width="400%" height="400%"><feGaussianBlur in="SourceGraphic" stdDeviation="2"></feGaussianBlur></filter><filter id="bbburst-blur-3" x="-100%" y="-100%" width="400%" height="400%"><feGaussianBlur in="SourceGraphic" stdDeviation="4"></feGaussianBlur></filter><filter id="bbburst-blur-4" x="-100%" y="-100%" width="400%" height="400%"><feGaussianBlur in="SourceGraphic" stdDeviation="12"></feGaussianBlur></filter><symbol id="bbburst-shape-1" viewBox="0 0 194 167"><path d="m97 0 96.129 166.5H.871L97 0Z"></path></symbol><symbol id="bbburst-shape-4" viewBox="0 0 149 143"><path d="M71.647 2.781c.898-2.764 4.808-2.764 5.706 0l15.445 47.534a3 3 0 0 0 2.853 2.073h49.98c2.906 0 4.115 3.719 1.764 5.427L106.96 87.193a2.999 2.999 0 0 0-1.09 3.354l15.445 47.534c.898 2.764-2.266 5.062-4.617 3.354l-40.435-29.378a3 3 0 0 0-3.526 0l-40.435 29.378c-2.351 1.708-5.515-.59-4.617-3.354L43.13 90.547a3 3 0 0 0-1.09-3.354L1.605 57.815c-2.35-1.708-1.142-5.427 1.764-5.427h49.98a3 3 0 0 0 2.853-2.073L71.647 2.781Z"></path></symbol><symbol id="bbburst-shape-5" viewBox="0 0 145 145"><circle cx="72.5" cy="72.5" r="72.5"></circle></symbol><symbol id="bbburst-shape-6" viewBox="0 0 133 116"><path d="M59.7487 10.2513c-13.6683-13.66839-35.8291-13.66839-49.4974 0-13.66839 13.6683-13.66839 35.8291 0 49.4974l49.4974-49.4974ZM66.5 66.5 41.7513 91.2487 66.5 115.997l24.7487-24.7483L66.5 66.5Zm56.249-6.7513c13.668-13.6683 13.668-35.8291 0-49.4974-13.669-13.66839-35.8294-13.66839-49.4977 0l49.4977 49.4974Zm-112.4977 0 31.5 31.5 49.4974-49.4974-31.5-31.5-49.4974 49.4974Zm80.9974 31.5 31.5003-31.5-49.4977-49.4974-31.5 31.5 49.4974 49.4974Z"></path></symbol><symbol id="bbburst-shape-7" viewBox="0 0 139 124"><path fill-rule="evenodd" clip-rule="evenodd" d="M70.1641 15.0917C54.6093.764854 37.8293-2.10782 24.4032 2.82615 10.3804 7.97941.763366 21.4591 1.00047 37.0608c.1068 7.0273 2.86132 13.7317 7.0039 20.2001C12.1442 63.7249 17.853 70.2322 24.25 76.9024c3.8209 3.9842 7.8871 8.0312 12.0767 12.201h.0001c10.0335 9.9862 20.7748 20.6766 30.5497 32.8956 1.38 1.725 3.8972 2.005 5.6223.624.6706-.536 1.1228-1.244 1.3439-2.011 9.5768-11.748 20.0328-22.0735 29.8163-31.7351 4.19-4.1373 8.256-8.1528 12.078-12.1062 6.396-6.6176 12.106-13.0752 16.247-19.4911 4.144-6.4196 6.905-13.0811 7.012-20.0691.237-15.5124-9.399-28.8902-23.411-33.99923-13.32-4.85681-29.9542-2.08621-45.4209 11.88043Zm-3.7351 7.4919C52.1278 8.44857 37.6826 6.46918 27.1626 10.3352 16.2859 14.3323 8.8148 24.7824 8.99955 36.9392c.07575 4.9844 2.03755 10.2234 5.74165 16.0072 3.707 5.7881 8.9752 11.8418 15.2827 18.4187 3.5798 3.7328 7.4978 7.6329 11.6 11.7163 9.0476 9.0063 18.9911 18.9046 28.1786 29.8666 9.2999-11.068 19.4036-21.0473 28.5839-30.1144l.0007-.0006c4.1019-4.0508 8.0189-7.9196 11.5979-11.6222 6.307-6.5252 11.573-12.5298 15.278-18.2697 3.703-5.7362 5.658-10.924 5.734-15.8531.184-12.0276-7.267-22.3914-18.153-26.3608-10.71-3.90518-25.4722-1.80041-40.0023 12.867-1.5547 1.5694-4.0874 1.5813-5.6568.0265-.3146-.3116-.5666-.6625-.7559-1.0371Z"></path></symbol><symbol id="bbburst-shape-8" viewBox="0 0 87 168"><path d="m12 12 31.2546 18.0749c16.4102 9.4902 20.014 31.6325 7.4603 45.8369L36.3296 92.1884c-12.5684 14.2206-8.9394 36.3916 7.5068 45.8636L75 156" stroke-width="14" stroke-linecap="round" stroke-linejoin="round"></path></symbol><symbol id="bbburst-shape-10" viewBox="0 0 145 145"><circle cx="72.5" cy="72.5" r="61.5" fill="none" stroke-width="22"></circle></symbol><symbol id="bbburst-shape-14" viewBox="0 0 185 109"><path d="M168 16.5C168 58.1975 134.197 92 92.5 92 50.8025 92 17 58.1975 17 16.5" stroke-width="33" stroke-linecap="round"></path></symbol></defs><use xlink:href="#bbburst-shape-8" width="49.94861045031816" opacity="0.2202830926263084" transform="matrix(0.9992876094078113,-0.03773955066003854,0.03773955066003854,0.9992876094078113,30.559178463144548,-123.18064622708329)" fill="none" stroke="#ff5c58" filter="url(#bbburst-blur-3)"></use><use xlink:href="#bbburst-shape-5" width="34.74568623972205" opacity="0.6341832391001814" transform="matrix(0.9715761477525208,0.23672724625266944,-0.23672724625266944,0.9715761477525208,514.8514265268312,-347.1181749704357)" fill="#2c2891" filter="url(#bbburst-blur-1)"></use><use xlink:href="#bbburst-shape-14" width="56.02606326812996" opacity="0.5689934910751455" transform="matrix(0.8052547397374702,0.5929290042916936,-0.5929290042916936,0.8052547397374702,858.5460098209343,63.12465436230906)" fill="none" stroke="#ffbd9b" filter="url(#bbburst-blur-1)"></use><use xlink:href="#bbburst-shape-6" width="55.61086825075969" opacity="0.26654264398456606" transform="matrix(0.8062017710078329,0.591640688614157,-0.591640688614157,0.8062017710078329,286.382771741193,-248.46083993478635)" fill="#ffa6d5" filter="url(#bbburst-blur-2)"></use><use xlink:href="#bbburst-shape-5" width="54.67437445570796" opacity="0.3991605136207048" transform="matrix(0.9961401044182449,0.08777751631031794,-0.08777751631031794,0.9961401044182449,214.91903264612927,-303.87017063452527)" fill="#2c2891" filter="url(#bbburst-blur-2)"></use><use xlink:href="#bbburst-shape-7" width="57.65309179942903" opacity="0.41413601088914664" transform="matrix(0.9940432585715994,0.10898623806865002,-0.10898623806865002,0.9940432585715994,392.20715921950267,5.039111600275987)" fill="#2c2891" filter="url(#bbburst-blur-2)"></use><use xlink:href="#bbburst-shape-4" width="30.270689121661654" opacity="0.8076933836045666" transform="matrix(0.828617989643776,0.5598144578685935,-0.5598144578685935,0.828617989643776,860.1909016921711,-221.0402291442025)" fill="#00a19d"></use><use xlink:href="#bbburst-shape-4" width="51.34314945766259" opacity="0.33371199413736885" transform="matrix(0.991485429664801,-0.13021767453923058,0.13021767453923058,0.991485429664801,132.96250417208336,-82.68068768033385)" fill="#00a19d" filter="url(#bbburst-blur-2)"></use><use xlink:href="#bbburst-shape-8" width="30.091344961747197" opacity="0.7004690931883089" transform="matrix(0.8244659812978096,-0.5659115175384222,0.5659115175384222,0.8244659812978096,362.2770825704564,-97.3607527315622)" fill="none" stroke="#2c2891"></use><use xlink:href="#bbburst-shape-6" width="48.71665314727114" opacity="0.47100766319974585" transform="matrix(0.743469004512173,-0.6687703935803966,0.6687703935803966,0.743469004512173,35.36312603787127,-56.65707360055444)" fill="#2c2891" filter="url(#bbburst-blur-1)"></use><use xlink:href="#bbburst-shape-4" width="41.95510141310125" opacity="0.5237855227629034" transform="matrix(0.7967313504346345,-0.6043336456251659,0.6043336456251659,0.7967313504346345,70.31804194578405,-237.45639143828316)" fill="#00a19d" filter="url(#bbburst-blur-1)"></use><use xlink:href="#bbburst-shape-1" width="55.81331104909151" opacity="0.49617828124858543" transform="matrix(0.7847612950920125,0.6197981201371195,-0.6197981201371195,0.7847612950920125,954.2200975756164,167.54132763686397)" fill="#2c2891" filter="url(#bbburst-blur-1)"></use><use xlink:href="#bbburst-shape-10" width="28.416481278968" opacity="0.8806304064367084" transform="matrix(0.9510061124673183,-0.30917207837998323,0.30917207837998323,0.9510061124673183,548.5838888837175,-341.3768496419684)" fill="none" stroke="#ffbd9b"></use><use xlink:href="#bbburst-shape-6" width="73.37234343147456" opacity="0.4364716000166595" transform="matrix(0.7570938167846392,0.653306170632474,-0.653306170632474,0.7570938167846392,787.8146504297671,180.32482041139076)" fill="#ffbd9b" filter="url(#bbburst-blur-2)"></use><use xlink:href="#bbburst-shape-10" width="21.902443698689368" opacity="0.8708121771967989" transform="matrix(0.9814997196032876,0.19146357465238084,-0.19146357465238084,0.9814997196032876,780.5318193395152,-297.67835402028174)" fill="none" stroke="#00a19d"></use><use xlink:href="#bbburst-shape-1" width="38.48083091684022" opacity="0.6771196816242948" transform="matrix(0.9882556584310883,0.15280953366506994,-0.15280953366506994,0.9882556584310883,571.9824722063574,-221.3113545697429)" fill="#2c2891"></use><use xlink:href="#bbburst-shape-10" width="24.317394290428723" opacity="0.7581627534256905" transform="matrix(0.9467806798994172,0.3218793938250743,-0.3218793938250743,0.9467806798994172,699.6517000145832,-277.07721398888816)" fill="none" stroke="#2c2891"></use><use xlink:href="#bbburst-shape-5" width="47.05367585267956" opacity="0.5616472275570578" transform="matrix(0.9983356154573534,-0.05767147396579495,0.05767147396579495,0.9983356154573534,487.63867496113585,-49.407723478017544)" fill="#00a19d" filter="url(#bbburst-blur-1)"></use><use xlink:href="#bbburst-shape-5" width="37.166881554244796" opacity="0.750685964670682" transform="matrix(0.757972251260042,0.6522867975973328,-0.6522867975973328,0.757972251260042,1005.1569166289329,-69.50395274790739)" fill="#00a19d"></use><use xlink:href="#bbburst-shape-1" width="37.451202058425196" opacity="0.6032777800289885" transform="matrix(0.9783498709843814,0.20695779749708462,-0.20695779749708462,0.9783498709843814,496.76868138982195,-246.1822432876296)" fill="#ffa6d5" filter="url(#bbburst-blur-1)"></use><use xlink:href="#bbburst-shape-6" width="81.67095998323424" opacity="0.2428269914148149" transform="matrix(0.9971738312086272,0.07512889159776212,-0.07512889159776212,0.9971738312086272,242.34721692858432,121.62746462671191)" fill="#ffbd9b" filter="url(#bbburst-blur-3)"></use><use xlink:href="#bbburst-shape-6" width="30.747140823239768" opacity="0.7879332185735182" transform="matrix(0.9956316572865412,-0.09336810487985372,0.09336810487985372,0.9956316572865412,639.8402894659087,-214.01987717347592)" fill="#ffa6d5"></use><use xlink:href="#bbburst-shape-7" width="37.969995849868326" opacity="0.721926172685736" transform="matrix(0.967407383400157,0.2532251064623366,-0.2532251064623366,0.967407383400157,609.2798011931562,-341.6740884553963)" fill="#ffa6d5"></use><use xlink:href="#bbburst-shape-8" width="73.36278570285111" opacity="0.14515344139348174" transform="matrix(0.7183415283071207,-0.695690627153615,0.695690627153615,0.7183415283071207,36.44370424138782,459.3935293256691)" fill="none" stroke="#00a19d" filter="url(#bbburst-blur-3)"></use><use xlink:href="#bbburst-shape-6" width="14.24974999908939" opacity="0.9687163623139164" transform="matrix(0.9999437009074635,-0.010611079845378568,0.010611079845378568,0.9999437009074635,771.1227846198591,-373.9763680410363)" fill="#2c2891"></use><use xlink:href="#bbburst-shape-8" width="58.626939300950845" opacity="0.30287825703335935" transform="matrix(0.7841456080789078,-0.6205768810796612,0.6205768810796612,0.7841456080789078,177.4795421423255,306.6662483026298)" fill="none" stroke="#ffa6d5" filter="url(#bbburst-blur-2)"></use><use xlink:href="#bbburst-shape-6" width="25.128892668275675" opacity="0.8419174867739677" transform="matrix(0.8314586801976594,0.5555865937223163,-0.5555865937223163,0.8314586801976594,978.4869673259325,-185.0286303991854)" fill="#2c2891"></use><use xlink:href="#bbburst-shape-4" width="24.809403549128366" opacity="0.8141105951008953" transform="matrix(0.9405316171877499,-0.33970616283811506,0.33970616283811506,0.9405316171877499,469.58255366670016,-338.6399573220184)" fill="#2c2891"></use><use xlink:href="#bbburst-shape-8" width="80.52839859699134" opacity="0.13548303747704915" transform="matrix(0.9963233867156447,0.08567210213055254,-0.08567210213055254,0.9963233867156447,76.21490612028107,79.63812297668841)" fill="none" stroke="#00a19d" filter="url(#bbburst-blur-3)"></use><use xlink:href="#bbburst-shape-7" width="22.942353417471857" opacity="0.9336253312536038" transform="matrix(0.9992856610542079,0.03779110492503252,-0.03779110492503252,0.9992856610542079,744.215839917111,-370.45158473555017)" fill="#00a19d"></use><use xlink:href="#bbburst-shape-7" width="22.93221875933709" opacity="0.9119882166273334" transform="matrix(0.7744575733034111,0.6326258508415472,-0.6326258508415472,0.7744575733034111,1017.6640485819117,-233.15054797286206)" fill="#ff5c58"></use><use xlink:href="#bbburst-shape-4" width="54.850037517084175" opacity="0.5567275066892721" transform="matrix(0.8977698595692128,0.44046484450983797,-0.44046484450983797,0.8977698595692128,600.492020116076,-100.48827264326872)" fill="#ff5c58" filter="url(#bbburst-blur-1)"></use><use xlink:href="#bbburst-shape-4" width="50.47446972950752" opacity="0.6819774928482543" transform="matrix(0.7574704326315498,-0.6528694691046387,0.6528694691046387,0.7574704326315498,384.4878712871614,1.339565549297106)" fill="#2c2891"></use><use xlink:href="#bbburst-shape-7" width="61.94921811924735" opacity="0.24159987855431408" transform="matrix(0.9053188559135562,0.42473258543155085,-0.42473258543155085,0.9053188559135562,749.7748484349981,358.32799106014335)" fill="#ffa6d5" filter="url(#bbburst-blur-3)"></use><use xlink:href="#bbburst-shape-1" width="99.13297300111597" opacity="0.02061884847310247" transform="matrix(0.9322132283638943,-0.36190951474555866,0.36190951474555866,0.9322132283638943,-79.14512031416473,341.9788839190654)" fill="#ffbd9b" filter="url(#bbburst-blur-3)"></use><use xlink:href="#bbburst-shape-6" width="69.48162039444367" opacity="0.3459922020232845" transform="matrix(0.9224552027999061,0.3861041295135084,-0.3861041295135084,0.9224552027999061,843.5286859404346,266.84029771829904)" fill="#00a19d" filter="url(#bbburst-blur-2)"></use><use xlink:href="#bbburst-shape-10" width="38.926782763206795" opacity="0.6361752910715983" transform="matrix(0.9999835410750106,-0.005737384341540293,0.005737384341540293,0.9999835410750106,731.3771602726707,-39.08802696909129)" fill="none" stroke="#00a19d" filter="url(#bbburst-blur-1)"></use></svg>