<svg xmlns="http://www.w3.org/2000/svg" version="1.1" xmlns:xlink="http://www.w3.org/1999/xlink" xmlns:svgjs="http://svgjs.dev/svgjs" viewBox="0 0 800 800" opacity="1"><defs><filter id="bbburst-blur-1" x="-100%" y="-100%" width="400%" height="400%"><feGaussianBlur in="SourceGraphic" stdDeviation="1"></feGaussianBlur></filter><filter id="bbburst-blur-2" x="-100%" y="-100%" width="400%" height="400%"><feGaussianBlur in="SourceGraphic" stdDeviation="2"></feGaussianBlur></filter><filter id="bbburst-blur-3" x="-100%" y="-100%" width="400%" height="400%"><feGaussianBlur in="SourceGraphic" stdDeviation="4"></feGaussianBlur></filter><filter id="bbburst-blur-4" x="-100%" y="-100%" width="400%" height="400%"><feGaussianBlur in="SourceGraphic" stdDeviation="12"></feGaussianBlur></filter><symbol id="bbburst-shape-1" viewBox="0 0 194 167"><path d="m97 0 96.129 166.5H.871L97 0Z"></path></symbol><symbol id="bbburst-shape-4" viewBox="0 0 149 143"><path d="M71.647 2.781c.898-2.764 4.808-2.764 5.706 0l15.445 47.534a3 3 0 0 0 2.853 2.073h49.98c2.906 0 4.115 3.719 1.764 5.427L106.96 87.193a2.999 2.999 0 0 0-1.09 3.354l15.445 47.534c.898 2.764-2.266 5.062-4.617 3.354l-40.435-29.378a3 3 0 0 0-3.526 0l-40.435 29.378c-2.351 1.708-5.515-.59-4.617-3.354L43.13 90.547a3 3 0 0 0-1.09-3.354L1.605 57.815c-2.35-1.708-1.142-5.427 1.764-5.427h49.98a3 3 0 0 0 2.853-2.073L71.647 2.781Z"></path></symbol><symbol id="bbburst-shape-5" viewBox="0 0 145 145"><circle cx="72.5" cy="72.5" r="72.5"></circle></symbol><symbol id="bbburst-shape-6" viewBox="0 0 133 116"><path d="M59.7487 10.2513c-13.6683-13.66839-35.8291-13.66839-49.4974 0-13.66839 13.6683-13.66839 35.8291 0 49.4974l49.4974-49.4974ZM66.5 66.5 41.7513 91.2487 66.5 115.997l24.7487-24.7483L66.5 66.5Zm56.249-6.7513c13.668-13.6683 13.668-35.8291 0-49.4974-13.669-13.66839-35.8294-13.66839-49.4977 0l49.4977 49.4974Zm-112.4977 0 31.5 31.5 49.4974-49.4974-31.5-31.5-49.4974 49.4974Zm80.9974 31.5 31.5003-31.5-49.4977-49.4974-31.5 31.5 49.4974 49.4974Z"></path></symbol><symbol id="bbburst-shape-7" viewBox="0 0 139 124"><path fill-rule="evenodd" clip-rule="evenodd" d="M70.1641 15.0917C54.6093.764854 37.8293-2.10782 24.4032 2.82615 10.3804 7.97941.763366 21.4591 1.00047 37.0608c.1068 7.0273 2.86132 13.7317 7.0039 20.2001C12.1442 63.7249 17.853 70.2322 24.25 76.9024c3.8209 3.9842 7.8871 8.0312 12.0767 12.201h.0001c10.0335 9.9862 20.7748 20.6766 30.5497 32.8956 1.38 1.725 3.8972 2.005 5.6223.624.6706-.536 1.1228-1.244 1.3439-2.011 9.5768-11.748 20.0328-22.0735 29.8163-31.7351 4.19-4.1373 8.256-8.1528 12.078-12.1062 6.396-6.6176 12.106-13.0752 16.247-19.4911 4.144-6.4196 6.905-13.0811 7.012-20.0691.237-15.5124-9.399-28.8902-23.411-33.99923-13.32-4.85681-29.9542-2.08621-45.4209 11.88043Zm-3.7351 7.4919C52.1278 8.44857 37.6826 6.46918 27.1626 10.3352 16.2859 14.3323 8.8148 24.7824 8.99955 36.9392c.07575 4.9844 2.03755 10.2234 5.74165 16.0072 3.707 5.7881 8.9752 11.8418 15.2827 18.4187 3.5798 3.7328 7.4978 7.6329 11.6 11.7163 9.0476 9.0063 18.9911 18.9046 28.1786 29.8666 9.2999-11.068 19.4036-21.0473 28.5839-30.1144l.0007-.0006c4.1019-4.0508 8.0189-7.9196 11.5979-11.6222 6.307-6.5252 11.573-12.5298 15.278-18.2697 3.703-5.7362 5.658-10.924 5.734-15.8531.184-12.0276-7.267-22.3914-18.153-26.3608-10.71-3.90518-25.4722-1.80041-40.0023 12.867-1.5547 1.5694-4.0874 1.5813-5.6568.0265-.3146-.3116-.5666-.6625-.7559-1.0371Z"></path></symbol><symbol id="bbburst-shape-8" viewBox="0 0 87 168"><path d="m12 12 31.2546 18.0749c16.4102 9.4902 20.014 31.6325 7.4603 45.8369L36.3296 92.1884c-12.5684 14.2206-8.9394 36.3916 7.5068 45.8636L75 156" stroke-width="14" stroke-linecap="round" stroke-linejoin="round"></path></symbol><symbol id="bbburst-shape-10" viewBox="0 0 145 145"><circle cx="72.5" cy="72.5" r="61.5" fill="none" stroke-width="22"></circle></symbol><symbol id="bbburst-shape-14" viewBox="0 0 185 109"><path d="M168 16.5C168 58.1975 134.197 92 92.5 92 50.8025 92 17 58.1975 17 16.5" stroke-width="33" stroke-linecap="round"></path></symbol></defs><use xlink:href="#bbburst-shape-5" width="75.2095829160134" opacity="0.28717729632850253" transform="matrix(0.9806290525638582,0.19587409544835122,-0.19587409544835122,0.9806290525638582,649.8296709871411,28.87388419647033)" fill="#ff5c58" filter="url(#bbburst-blur-2)"></use><use xlink:href="#bbburst-shape-5" width="37.87365295219072" opacity="0.63268273582312" transform="matrix(0.9200009554491646,-0.3919161159899198,0.3919161159899198,0.9200009554491646,-33.48751028422245,100.1201665971879)" fill="#00a19d" filter="url(#bbburst-blur-1)"></use><use xlink:href="#bbburst-shape-6" width="40.38045743819226" opacity="0.5146412112842578" transform="matrix(0.8251129424251873,-0.5649678152270708,0.5649678152270708,0.8251129424251873,-151.8907077857597,4.563739194863047)" fill="#00a19d" filter="url(#bbburst-blur-1)"></use><use xlink:href="#bbburst-shape-7" width="91.67995293972783" opacity="0.019210532283157833" transform="matrix(0.9987236284743863,-0.05050855300794142,0.05050855300794142,0.9987236284743863,614.0107253874824,-303.6616453018103)" fill="#ffa6d5" filter="url(#bbburst-blur-3)"></use><use xlink:href="#bbburst-shape-6" width="42.170694991438324" opacity="0.24675223261547508" transform="matrix(0.9616907289901041,0.27413672095230546,-0.27413672095230546,0.9616907289901041,224.44400964632953,-331.49530462850595)" fill="#ffa6d5" filter="url(#bbburst-blur-3)"></use><use xlink:href="#bbburst-shape-14" width="70.0277571198898" opacity="0.3999740414585583" transform="matrix(0.7540716030511051,-0.6567922178832029,0.6567922178832029,0.7540716030511051,272.82984263554755,310.93181809519984)" fill="none" stroke="#ffa6d5" filter="url(#bbburst-blur-2)"></use><use xlink:href="#bbburst-shape-7" width="60.85893452667375" opacity="0.41780969290184156" transform="matrix(0.9907010655142491,0.13605660141621798,-0.13605660141621798,0.9907010655142491,485.1009704488636,44.01711330921921)" fill="#00a19d" filter="url(#bbburst-blur-2)"></use><use xlink:href="#bbburst-shape-4" width="46.024832153861645" opacity="0.6305877612653372" transform="matrix(0.9425493421461879,-0.33406696577151773,0.33406696577151773,0.9425493421461879,-111.49757631364221,63.901583915390574)" fill="#00a19d" filter="url(#bbburst-blur-1)"></use><use xlink:href="#bbburst-shape-8" width="23.527123881706345" opacity="0.8620740255405142" transform="matrix(0.8251348964742224,-0.5649357508783404,0.5649357508783404,0.8251348964742224,-120.20638399316428,401.16470649796264)" fill="none" stroke="#00a19d"></use><use xlink:href="#bbburst-shape-10" width="43.70309176718894" opacity="0.5397023961105477" transform="matrix(0.9235596313689813,0.38345483085441934,-0.38345483085441934,0.9235596313689813,463.59229069964243,101.70479351556185)" fill="none" stroke="#00a19d" filter="url(#bbburst-blur-1)"></use><use xlink:href="#bbburst-shape-6" width="49.10277062446758" opacity="0.6400947243108872" transform="matrix(0.8974147918491076,0.44118781870131346,-0.44118781870131346,0.8974147918491076,379.44166635848785,149.29889837131674)" fill="#ffbd9b" filter="url(#bbburst-blur-1)"></use><use xlink:href="#bbburst-shape-4" width="30.501843242089713" opacity="0.8141173449494667" transform="matrix(0.8158300486626678,-0.5782917358038839,0.5782917358038839,0.8158300486626678,-61.205360610935344,447.4042181337787)" fill="#ffa6d5"></use><use xlink:href="#bbburst-shape-14" width="17.12821352378675" opacity="0.9534121148483252" transform="matrix(0.9984900746666773,-0.05493242022825107,0.05493242022825107,0.9984900746666773,-13.79447984360922,357.6165892724141)" fill="none" stroke="#00a19d"></use><use xlink:href="#bbburst-shape-5" width="24.63998137381174" opacity="0.7447685534316121" transform="matrix(0.8361709920124021,0.5484688433420766,-0.5484688433420766,0.8361709920124021,462.8879685906559,431.8002783437356)" fill="#00a19d"></use><use xlink:href="#bbburst-shape-10" width="83.90433954225477" opacity="0.22473261420713087" transform="matrix(0.9994374923274324,0.03353653127939168,-0.03353653127939168,0.9994374923274324,512.3918335870235,-156.57409671681935)" fill="none" stroke="#ffa6d5" filter="url(#bbburst-blur-3)"></use><use xlink:href="#bbburst-shape-6" width="39.780305142007506" opacity="0.5192940972937696" transform="matrix(0.7881948102803239,0.6154258209135883,-0.6154258209135883,0.7881948102803239,705.2938102643174,397.3675963918261)" fill="#2c2891" filter="url(#bbburst-blur-1)"></use><use xlink:href="#bbburst-shape-10" width="30.35018391604266" opacity="0.7355145766620318" transform="matrix(0.9590860271157426,-0.283114804613501,0.283114804613501,0.9590860271157426,-83.75230655432105,159.87015396104903)" fill="none" stroke="#ffa6d5"></use><use xlink:href="#bbburst-shape-4" width="73.09774761283852" opacity="0.3285205145465141" transform="matrix(0.9079547152974948,0.4190682939200305,-0.4190682939200305,0.9079547152974948,391.4928791439375,-198.75704083688882)" fill="#00a19d" filter="url(#bbburst-blur-2)"></use><use xlink:href="#bbburst-shape-6" width="52.50074955489569" opacity="0.38655407137057063" transform="matrix(0.9922034177761511,0.12462896033155664,-0.12462896033155664,0.9922034177761511,96.96691473342872,-209.21994743770523)" fill="#ffa6d5" filter="url(#bbburst-blur-2)"></use><use xlink:href="#bbburst-shape-5" width="15.42238960298343" opacity="0.9506435837842222" transform="matrix(0.9410634472961767,0.3382300816944524,-0.3382300816944524,0.9410634472961767,172.60093501697298,399.754192252614)" fill="#ffa6d5"></use><use xlink:href="#bbburst-shape-6" width="58.13985661754407" opacity="0.5009657419794735" transform="matrix(0.8386967328499784,-0.5445987424763042,0.5445987424763042,0.8386967328499784,-6.268962455652854,40.62352143157375)" fill="#2c2891" filter="url(#bbburst-blur-1)"></use><use xlink:href="#bbburst-shape-5" width="26.10139774439661" opacity="0.8037695408680493" transform="matrix(0.9445317008970375,-0.3284202582066903,0.3284202582066903,0.9445317008970375,20.024601655921998,318.29618691955056)" fill="#ffa6d5"></use><use xlink:href="#bbburst-shape-5" width="62.601387170988644" opacity="0.16668651744405028" transform="matrix(0.9580749298231604,0.28651776357556996,-0.28651776357556996,0.9580749298231604,507.40359202640377,-310.2958645266588)" fill="#2c2891" filter="url(#bbburst-blur-3)"></use><use xlink:href="#bbburst-shape-14" width="58.924062264353495" opacity="0.12143125957448464" transform="matrix(0.873794045713879,-0.48629617073854436,0.48629617073854436,0.873794045713879,503.0013213900661,-33.94825673605817)" fill="none" stroke="#00a19d" filter="url(#bbburst-blur-3)"></use><use xlink:href="#bbburst-shape-6" width="68.63555501734798" opacity="0.222384118241289" transform="matrix(0.7922412425065,-0.6102080085280406,0.6102080085280406,0.7922412425065,457.8447517126248,233.71734247545544)" fill="#00a19d" filter="url(#bbburst-blur-3)"></use><use xlink:href="#bbburst-shape-5" width="24.56029519364628" opacity="0.82074748991447" transform="matrix(0.7772022776308173,-0.6292508400037857,0.6292508400037857,0.7772022776308173,-154.8062575688663,352.6161388652119)" fill="#ffbd9b"></use><use xlink:href="#bbburst-shape-4" width="18.364716000605107" opacity="0.8848780468992579" transform="matrix(0.999962333964191,0.008679323296654898,-0.008679323296654898,0.999962333964191,18.633710369699607,287.43348785256876)" fill="#ff5c58"></use><use xlink:href="#bbburst-shape-7" width="29.03609660203525" opacity="0.8186304728580649" transform="matrix(0.9806173916743393,-0.1959324657779191,0.1959324657779191,0.9806173916743393,-53.066505191332304,233.62550210576825)" fill="#ffbd9b"></use><use xlink:href="#bbburst-shape-7" width="37.32447346080998" opacity="0.7321174677040607" transform="matrix(0.87433229459113,-0.48532776412957185,0.48532776412957185,0.87433229459113,-13.625789944308906,277.7921824110894)" fill="#ffa6d5"></use><use xlink:href="#bbburst-shape-10" width="19.068255199728064" opacity="0.9106121585129051" transform="matrix(0.8762061665966655,0.4819364622208787,-0.4819364622208787,0.8762061665966655,269.3613536256612,417.078970267404)" fill="none" stroke="#ffa6d5"></use><use xlink:href="#bbburst-shape-7" width="37.42549611258744" opacity="0.6168884289036978" transform="matrix(0.7250265561312046,0.6887209107501566,-0.6887209107501566,0.7250265561312046,640.9926456551666,442.11894444739215)" fill="#ff5c58" filter="url(#bbburst-blur-1)"></use><use xlink:href="#bbburst-shape-5" width="18.23698883499543" opacity="0.8946927392694579" transform="matrix(0.9056116141419025,-0.4241080102182674,0.4241080102182674,0.9056116141419025,-115.07546853291146,357.10886340435627)" fill="#00a19d"></use><use xlink:href="#bbburst-shape-4" width="17.57427271754981" opacity="0.8665986985705514" transform="matrix(0.9999970216609546,-0.002440628857540981,0.002440628857540981,0.9999970216609546,121.38859414233822,375.6445011826884)" fill="#00a19d"></use><use xlink:href="#bbburst-shape-10" width="30.819825057642884" opacity="0.6831548514988535" transform="matrix(0.9961455798557408,-0.08771535631729385,0.08771535631729385,0.9961455798557408,257.1870714261058,327.00869422713373)" fill="none" stroke="#00a19d"></use><use xlink:href="#bbburst-shape-4" width="49.3662747835612" opacity="0.2666254823173059" transform="matrix(0.9975279046999093,0.0702714689259353,-0.0702714689259353,0.9975279046999093,731.3017621077655,309.19699284784645)" fill="#ff5c58" filter="url(#bbburst-blur-2)"></use><use xlink:href="#bbburst-shape-6" width="44.593467064097304" opacity="0.6547178822781572" transform="matrix(0.9993286578680901,0.03663650588636509,-0.03663650588636509,0.9993286578680901,286.9122923699797,219.268286875047)" fill="#ffa6d5"></use><use xlink:href="#bbburst-shape-5" width="34.58550992441417" opacity="0.7414226606639147" transform="matrix(0.9261978473329519,0.3770378596319022,-0.3770378596319022,0.9261978473329519,259.0207605780787,196.21657159026165)" fill="#ffbd9b"></use><use xlink:href="#bbburst-shape-1" width="66.54578148616429" opacity="0.5449623480194457" transform="matrix(0.8488443914900239,0.5286427896377014,-0.5286427896377014,0.8488443914900239,592.6907815303196,244.57576515137424)" fill="#00a19d" filter="url(#bbburst-blur-1)"></use><use xlink:href="#bbburst-shape-4" width="60.30530559543028" opacity="0.36989529037158464" transform="matrix(0.9999056982786577,-0.013732973089247468,0.013732973089247468,0.9999056982786577,344.7114799804723,-101.85082784205082)" fill="#ffa6d5" filter="url(#bbburst-blur-2)"></use><use xlink:href="#bbburst-shape-4" width="45.09336121418184" opacity="0.4014612833989838" transform="matrix(0.9657890957266476,-0.2593287924151582,0.2593287924151582,0.9657890957266476,469.1903947590508,351.77489991836393)" fill="#2c2891" filter="url(#bbburst-blur-2)"></use><use xlink:href="#bbburst-shape-10" width="32.828439531621754" opacity="0.7494517499323194" transform="matrix(0.7205063289519217,0.693448361408566,-0.693448361408566,0.7205063289519217,495.21332466916647,400.26281650462465)" fill="none" stroke="#ffa6d5"></use></svg>